<svg xmlns="http://www.w3.org/2000/svg" xmlns:xlink="http://www.w3.org/1999/xlink" version="1.1" x="0px" y="0px" viewBox="0 0 100 125" style="enable-background:new 0 0 100 100;" xml:space="preserve"><g><g><path d="M59.3,46.5l-8.7,8.7l-8.7-8.7c-0.8-0.8-2-0.8-2.8,0c-0.8,0.8-0.8,2,0,2.8l10.1,10.1c0.4,0.4,0.9,0.6,1.4,0.6    s1-0.2,1.4-0.6l10.1-10.1c0.8-0.8,0.8-2,0-2.8C61.4,45.7,60.1,45.7,59.3,46.5z M50.8,5c-24.9,0-45,20.1-45,45    c0,24.9,20.1,45,45,45c24.9,0,45-20.1,45-45C95.8,25.1,75.6,5,50.8,5z M50.8,91c-22.6,0-41-18.4-41-41s18.4-41,41-41    s41,18.4,41,41S73.4,91,50.8,91z"/></g></g></svg>